<?xml version="1.0" standalone="no"?>
<!DOCTYPE svg PUBLIC "-//W3C//DTD SVG 20010904//EN"
 "http://www.w3.org/TR/2001/REC-SVG-20010904/DTD/svg10.dtd">
<svg version="1.0" xmlns="http://www.w3.org/2000/svg"
 width="400.000000pt" height="400.000000pt" viewBox="0 0 400.000000 400.000000"
 preserveAspectRatio="xMidYMid meet">
<metadata>
Created by potrace 1.14, written by Peter Selinger 2001-2017
</metadata>
<g transform="translate(0.000000,400.000000) scale(0.100000,-0.100000)"
fill="#000000" stroke="none">
<path d="M1897 3906 c-20 -6 -46 -19 -57 -28 -11 -10 -23 -18 -27 -18 -10 0
-32 -32 -54 -79 -18 -37 -20 -57 -16 -113 3 -37 2 -68 -1 -68 -21 -1 -43 -30
-37 -49 6 -20 6 -20 37 -1 l31 19 34 -32 c18 -18 55 -39 81 -49 34 -12 48 -23
52 -40 6 -24 44 -33 46 -10 1 6 2 19 3 27 0 8 11 15 22 15 22 0 88 36 101 54
5 7 16 7 37 -1 24 -9 31 -8 35 4 10 24 7 33 -9 33 -8 0 -15 1 -15 3 0 1 6 25
14 53 29 108 -6 198 -100 261 -41 27 -120 35 -177 19z"/>
<path d="M1558 3494 c-29 -15 -32 -22 -22 -48 5 -14 11 -13 45 6 24 13 38 28
37 37 -4 21 -28 23 -60 5z"/>
<path d="M2277 3490 c-4 -16 3 -24 33 -39 27 -13 42 -15 49 -8 18 18 13 32
-18 50 -38 22 -57 22 -64 -3z"/>
<path d="M2461 3417 c-19 -19 -12 -35 21 -51 39 -20 54 -20 61 -2 6 15 1 21
-44 48 -20 13 -29 14 -38 5z"/>
<path d="M1378 3392 c-31 -19 -36 -39 -13 -48 21 -9 85 34 78 52 -7 18 -31 17
-65 -4z"/>
<path d="M455 3373 c-60 -11 -145 -36 -145 -44 0 -5 -4 -8 -8 -6 -14 4 -111
-63 -152 -104 -164 -166 -192 -442 -63 -636 75 -113 196 -200 313 -224 90 -18
84 1 81 -235 -1 -115 -2 -213 -2 -219 0 -5 1 -53 1 -105 1 -52 1 -100 1 -107
-1 -6 -11 -14 -23 -18 -68 -18 -128 -40 -128 -47 0 -4 -7 -8 -15 -8 -16 0
-116 -78 -152 -119 -38 -44 -90 -153 -105 -221 -24 -110 -9 -252 35 -335 6
-11 11 -22 12 -25 1 -12 52 -78 89 -116 43 -44 131 -103 181 -122 56 -21 90
-26 195 -26 90 1 114 4 167 26 34 14 82 40 106 57 42 28 97 39 97 19 0 -4 4
-8 9 -8 5 0 114 -51 243 -114 233 -113 329 -159 338 -161 3 -1 52 -25 110 -54
l106 -54 -2 -49 c-5 -90 33 -160 110 -208 32 -19 53 -24 105 -24 136 1 223 91
223 231 0 27 6 38 28 51 74 43 95 56 100 57 5 1 98 50 280 150 52 29 105 55
118 59 12 4 22 12 22 17 0 5 7 9 15 9 8 0 15 5 15 12 0 6 3 8 7 5 3 -4 20 2
37 12 17 10 57 32 89 50 142 77 173 94 182 101 15 11 58 5 63 -8 2 -7 10 -12
18 -12 8 0 14 -4 14 -10 0 -5 3 -9 8 -8 4 1 27 -8 51 -21 24 -12 51 -24 60
-26 9 -2 34 -7 56 -12 41 -10 151 -9 195 0 49 11 92 26 106 38 8 6 14 8 14 5
0 -4 13 2 29 13 16 12 33 21 38 21 7 0 111 105 141 144 21 27 60 110 66 139 2
14 7 31 10 35 12 19 15 140 5 197 -10 59 -56 177 -71 183 -4 2 -8 9 -8 17 0
17 -110 127 -146 145 -16 8 -31 17 -34 20 -16 16 -111 54 -127 51 -7 -1 -21 3
-32 8 -17 10 -19 25 -20 188 -1 98 -3 219 -5 268 -1 50 -1 97 2 105 2 8 21 23
42 33 38 18 170 140 170 157 0 5 6 15 13 22 10 11 37 60 42 78 1 3 7 24 14 48
19 66 24 172 11 242 -32 178 -183 344 -360 396 -76 23 -248 23 -277 1 -7 -5
-13 -7 -13 -3 0 10 -83 -27 -135 -60 -92 -61 -146 -122 -190 -217 -56 -124
-63 -258 -20 -379 22 -60 27 -88 16 -88 -5 0 -16 -6 -23 -12 -15 -14 -48 -33
-136 -79 -30 -15 -59 -32 -65 -37 -7 -5 -37 -23 -67 -39 -154 -84 -195 -107
-200 -112 -6 -7 -87 -52 -147 -83 l-42 -21 -36 27 c-19 15 -55 34 -78 42 -38
13 -42 17 -42 47 0 26 -4 32 -21 33 -18 1 -21 -4 -20 -28 2 -32 -7 -42 -45
-51 -14 -4 -43 -18 -65 -33 l-39 -27 -55 29 c-30 15 -71 38 -90 49 -19 12 -55
33 -80 47 -25 14 -120 69 -212 122 -92 53 -172 96 -178 96 -5 0 -10 4 -10 9 0
5 -10 13 -21 16 -12 4 -52 25 -89 48 -73 44 -72 41 -44 117 17 49 23 174 11
255 -10 68 -66 180 -119 237 -72 78 -182 143 -275 164 -34 7 -150 12 -178 7z
m16 -153 c1 -5 2 -18 3 -27 1 -10 6 -26 12 -37 13 -22 26 -8 30 33 1 14 2 29
3 34 1 4 17 7 36 7 34 0 35 -1 35 -40 0 -30 5 -42 18 -47 95 -32 132 -70 132
-138 0 -43 -13 -72 -47 -102 l-25 -22 34 -17 c62 -29 90 -114 61 -184 -20 -49
-83 -94 -148 -104 -16 -2 -21 -12 -23 -45 -3 -42 -3 -42 -40 -39 -35 4 -37 6
-36 40 2 30 -1 35 -20 34 -17 -1 -21 -7 -21 -36 0 -32 -2 -35 -32 -37 -38 -1
-42 3 -45 46 l-2 31 -63 0 c-55 0 -63 2 -63 19 0 13 11 23 35 31 40 13 37 -9
37 250 0 237 3 217 -33 225 -30 7 -48 29 -35 43 4 3 30 7 59 8 29 1 55 2 60 3
4 1 7 16 7 34 0 19 3 37 7 40 10 11 63 8 64 -3z m3017 -102 c18 -11 40 -33 48
-50 21 -41 20 -111 -3 -151 -22 -38 -90 -76 -132 -72 -17 1 -32 -3 -35 -10 -8
-22 19 -48 51 -47 41 1 103 -37 127 -77 21 -36 23 -99 5 -141 -24 -57 -113
-94 -184 -76 -30 8 -84 61 -90 90 -13 56 -12 76 4 112 22 48 17 64 -18 64 -18
0 -37 -12 -60 -39 -99 -115 -281 -41 -265 107 16 140 193 184 273 67 42 -62
96 -38 64 28 -17 35 -20 103 -5 139 13 32 68 75 102 80 40 6 83 -2 118 -24z
m-2524 -575 c4 -5 11 -8 14 -8 4 0 18 -8 32 -17 22 -14 103 -61 185 -108 17
-9 80 -45 140 -80 61 -34 130 -74 155 -88 25 -13 50 -28 55 -32 13 -10 99 -58
152 -85 24 -12 40 -25 36 -29 -3 -3 -2 -6 3 -6 5 0 9 -28 9 -62 1 -35 4 -75 9
-90 7 -24 4 -30 -23 -45 -17 -10 -30 -25 -28 -33 3 -17 19 -17 62 0 27 11 34
10 68 -13 21 -14 51 -28 67 -32 16 -4 32 -11 35 -16 3 -5 6 -210 6 -456 -1
-247 -1 -531 -1 -633 l0 -185 -41 -13 c-23 -7 -56 -24 -75 -38 l-33 -26 -103
50 c-531 257 -704 341 -711 349 -4 3 -3 11 2 17 36 45 75 139 88 216 49 276
-143 548 -417 595 -19 3 -42 8 -50 10 -8 2 -17 4 -20 4 -7 1 -7 648 0 654 3 3
19 7 37 10 91 14 202 75 272 148 46 48 61 56 75 42z m1986 -125 c96 -92 221
-137 368 -132 l92 3 1 -37 c6 -205 5 -469 -2 -477 -4 -6 -24 -12 -43 -13 -92
-6 -225 -77 -304 -161 -92 -98 -134 -203 -137 -341 -2 -118 25 -213 87 -302
23 -33 23 -44 1 -52 -10 -3 -25 -10 -33 -15 -8 -6 -100 -56 -205 -112 -104
-56 -193 -107 -197 -113 -4 -6 -8 -7 -8 -3 0 4 -26 -7 -57 -24 -32 -17 -71
-39 -88 -48 -16 -9 -32 -19 -35 -22 -6 -7 -33 -17 -41 -15 -3 0 -13 -5 -23
-13 -16 -14 -31 -22 -130 -75 l-54 -29 -28 27 c-16 14 -51 35 -79 45 l-50 19
0 633 0 633 30 15 c75 36 91 47 117 75 16 17 29 34 29 38 2 13 5 22 13 38 3 9
8 40 9 69 2 51 4 54 42 76 22 12 84 48 139 79 54 31 102 56 106 56 5 0 10 3
12 8 2 4 19 15 38 26 125 67 168 91 189 107 13 11 27 19 31 19 4 0 38 18 76
40 42 25 72 36 78 30 6 -4 31 -28 56 -52z m584 -838 c3 -3 1 -21 -4 -40 -5
-19 -16 -62 -24 -95 -21 -83 -21 -87 10 -83 23 3 29 -2 40 -34 13 -37 11 -40
-26 -53 -3 -1 -13 -5 -22 -8 -10 -4 -25 -9 -33 -12 -16 -5 -31 -37 -39 -80
l-5 -25 130 0 131 0 -6 -27 c-3 -16 -8 -41 -10 -57 -3 -16 -10 -32 -15 -35 -8
-5 -417 -7 -443 -2 -8 1 -4 38 6 62 14 33 13 74 -2 85 -9 6 -17 17 -18 25 -11
48 -9 52 34 67 31 12 42 22 42 37 0 12 3 25 7 29 4 3 8 12 9 19 9 55 54 206
66 223 9 12 161 15 172 4z"/>
<path d="M479 3076 c-5 -7 -4 -149 1 -157 8 -12 36 -15 72 -6 53 14 71 118 25
147 -17 11 -93 24 -98 16z"/>
<path d="M483 2831 c-4 -3 -8 -46 -8 -95 0 -88 0 -90 26 -97 15 -3 32 -3 39 1
7 5 19 6 25 3 7 -2 25 7 40 20 39 33 43 105 9 142 -13 14 -31 26 -41 26 -10 1
-32 2 -50 4 -17 1 -35 -1 -40 -4z"/>
<path d="M1548 1787 c-18 -16 -24 -27 -18 -37 7 -11 15 -11 50 5 27 12 39 23
35 33 -3 7 -5 16 -5 18 0 13 -39 1 -62 -19z"/>
<path d="M1383 1693 c-34 -17 -43 -40 -19 -49 29 -11 98 41 79 60 -10 9 -25 6
-60 -11z"/>
<path d="M1213 1593 c-36 -18 -37 -21 -23 -43 8 -13 14 -13 45 4 20 11 35 27
35 38 0 22 -14 22 -57 1z"/>
<path d="M1043 1490 c-33 -20 -41 -34 -24 -45 17 -10 81 27 81 47 0 23 -17 23
-57 -2z"/>
<path d="M2138 1842 c-4 -15 3 -23 29 -36 18 -9 40 -16 47 -16 22 0 28 30 8
37 -9 4 -19 10 -22 14 -3 4 -17 10 -31 14 -21 5 -27 2 -31 -13z"/>
<path d="M2321 1757 c-20 -20 -12 -36 25 -52 45 -18 41 -19 53 3 8 16 4 22
-29 39 -27 15 -41 18 -49 10z"/>
<path d="M2491 1663 c-10 -21 -8 -24 28 -43 49 -24 57 -25 65 -3 4 10 4 14 0
10 -4 -4 -13 2 -21 13 -8 11 -23 20 -33 20 -10 0 -20 6 -22 12 -3 8 -9 5 -17
-9z"/>
<path d="M2670 1556 c0 -17 9 -27 30 -36 59 -24 80 11 25 42 -41 24 -55 22
-55 -6z"/>
<path d="M2846 1473 c-9 -22 -9 -22 27 -43 40 -25 57 -25 57 -2 0 10 -17 26
-39 38 -33 18 -41 19 -45 7z"/>
<path d="M2630 3312 c0 -11 14 -25 35 -35 43 -21 51 -21 58 -3 4 9 -7 22 -29
35 -43 26 -64 27 -64 3z"/>
<path d="M1945 3308 c-2 -7 -3 -29 -2 -48 2 -28 6 -35 22 -35 17 0 20 7 22 48
1 41 -1 47 -18 47 -11 0 -21 -6 -24 -12z"/>
<path d="M1216 3295 c-8 -8 -20 -15 -26 -15 -6 0 -10 -8 -8 -17 5 -24 55 -21
78 4 32 35 -10 62 -44 28z"/>
<path d="M2812 3229 c-11 -17 -9 -21 15 -31 16 -7 30 -15 33 -19 10 -13 39 -5
43 12 3 12 -4 21 -24 29 -15 7 -31 11 -35 10 -4 -1 -10 3 -13 9 -4 6 -12 2
-19 -10z"/>
<path d="M1038 3192 c-16 -10 -28 -25 -28 -34 0 -21 8 -22 45 -8 34 13 53 32
47 48 -5 16 -31 14 -64 -6z"/>
<path d="M1944 3072 c1 -40 4 -47 21 -47 17 0 20 8 23 45 3 42 1 46 -21 48
-22 1 -23 -2 -23 -46z"/>
<path d="M1945 2873 c0 -41 3 -48 21 -51 19 -3 21 2 20 45 -1 40 -4 48 -21 51
-19 3 -21 -2 -20 -45z"/>
<path d="M1944 2672 c1 -40 4 -47 21 -47 17 0 20 8 23 45 3 42 1 46 -21 48
-22 1 -23 -2 -23 -46z"/>
<path d="M1947 2513 c-2 -4 -3 -26 -3 -48 1 -32 5 -41 22 -43 18 -3 20 2 20
45 -1 36 -5 48 -18 51 -9 2 -18 -1 -21 -5z"/>
</g>
</svg>
