<svg width="311" height="53" viewBox="0 0 311 53" fill="none" xmlns="http://www.w3.org/2000/svg">
<path d="M6.68332 14.0503H6.24609V11.6455H6.68332C7.21424 11.6455 7.55777 11.7392 7.77639 11.9266C7.96377 12.114 8.11992 12.4575 8.11992 12.8323C8.11992 13.207 7.96377 13.4881 7.77639 13.7379C7.55777 13.8941 7.21424 14.0503 6.68332 14.0503Z" fill="white"/>
<path d="M8.46349 15.5181C8.55719 15.7055 8.61965 15.9554 8.61965 16.2364C8.61965 16.5175 8.55719 16.7674 8.46349 16.8923C8.3698 17.0797 8.27611 17.2358 8.11996 17.3295C7.96381 17.4232 7.77643 17.5169 7.58904 17.5794C7.3392 17.6418 7.12058 17.6418 6.87074 17.6418H6.30859V14.8623H6.87074C7.12058 14.8623 7.3392 14.8623 7.58904 14.9248C7.77643 14.9872 7.96381 15.0185 8.11996 15.1121C8.21365 15.2058 8.3698 15.3308 8.46349 15.5181Z" fill="white"/>
<path d="M7.46393 30.2275C3.65381 30.2275 0.530762 33.3194 0.530762 37.1607C0.530762 41.0021 3.62258 44.0939 7.46393 44.0939C11.3053 44.0939 14.3971 41.0021 14.3971 37.1607C14.3659 33.2881 11.274 30.2275 7.46393 30.2275ZM7.46393 42.6885L4.74688 37.1607L7.46393 39.4405L10.181 37.1607L7.46393 42.6885ZM7.46393 38.9096L4.74688 36.5673L7.46393 31.6017L10.181 36.5673L7.46393 38.9096Z" fill="white"/>
<path d="M29.1355 3.9201C29.4008 2.28564 28.2908 0.745608 26.6564 0.480346C25.0219 0.215084 23.4819 1.32504 23.2166 2.9595C22.9514 4.59396 24.0613 6.13398 25.6958 6.39925C27.3302 6.66451 28.8703 5.55456 29.1355 3.9201Z" fill="white"/>
<path d="M27.3235 28.4648C28.8533 27.8311 29.5798 26.0773 28.9461 24.5475C28.3124 23.0177 26.5586 22.2912 25.0288 22.9249C23.4989 23.5586 22.7725 25.3124 23.4062 26.8422C24.0399 28.372 25.7937 29.0985 27.3235 28.4648Z" fill="white"/>
<path d="M27.3225 51.4199C28.8524 50.7862 29.5788 49.0324 28.9451 47.5025C28.3115 45.9727 26.5576 45.2463 25.0278 45.88C23.498 46.5136 22.7715 48.2675 23.4052 49.7973C24.0389 51.3271 25.7927 52.0536 27.3225 51.4199Z" fill="white"/>
<path d="M11.3055 12.3644L10.9619 11.8022L12.1174 11.1464L12.461 11.7085L11.3055 12.3644ZM13.6477 11.0527L13.3042 10.4906L14.4597 9.83471L14.8033 10.3969L13.6477 11.0527ZM15.9588 9.70979L15.6153 9.14764L16.7708 8.4918L17.1143 9.05395L15.9588 9.70979ZM18.2386 8.39811L17.8951 7.83596L19.0506 7.18012L19.3941 7.74227L18.2386 8.39811ZM20.5184 7.08643L20.1749 6.52428L21.3304 5.86844L21.674 6.43059L20.5184 7.08643ZM22.8607 5.74352L22.5172 5.18137L23.6727 4.52553L24.0163 5.08768L22.8607 5.74352ZM25.1718 4.40061L24.8282 3.83846L25.9838 3.18262L26.3273 3.74477L25.1718 4.40061Z" fill="white"/>
<path d="M26.4835 25.7H25.8276V24.3571H26.4835V25.7ZM26.4835 23.0766H25.8276V21.7337H26.4835V23.0766ZM26.4835 20.3908H25.8276V19.0479H26.4835V20.3908ZM26.4835 17.7362H25.8276V16.3933H26.4835V17.7362ZM26.4835 15.0816H25.8276V13.7387H26.4835V15.0816ZM26.4835 12.427H25.8276V11.0841H26.4835V12.427ZM26.4835 9.74119H25.8276V8.39828H26.4835V9.74119ZM26.4835 7.11783H25.8276V5.77492H26.4835V7.11783ZM26.4835 4.46324H25.8276V3.46387H26.4835V4.46324Z" fill="white"/>
<path d="M11.598 16.6583L10.9316 17.8242L25.7632 26.3008L26.4295 25.1349L11.598 16.6583Z" fill="white"/>
<path d="M26.8267 26.262L26.1709 25.1064L40.0372 17.2988L41.8174 17.8297L26.8267 26.262Z" fill="white"/>
<path d="M45.5029 30.3216L45.3779 19.9531H46.7208L46.8145 30.3216H45.5029Z" fill="white"/>
<path d="M26.546 49.4033L9.49414 41.1584L10.0875 39.9717L26.4835 47.873L41.1306 39.9717L41.8177 41.1584L26.546 49.4033Z" fill="white"/>
<path d="M11.368 34.9435L11.0244 34.3813L12.1799 33.7255L12.5235 34.2876L11.368 34.9435ZM13.6478 33.6006L13.3042 33.0384L14.4598 32.3826L14.8033 32.9447L13.6478 33.6006ZM15.9588 32.2889L15.6153 31.7267L16.7708 31.0709L17.1144 31.633L15.9588 32.2889ZM18.2387 30.946L17.8951 30.3838L19.0507 29.728L19.3942 30.2901L18.2387 30.946ZM20.5185 29.6655L20.1749 29.1034L21.3305 28.4475L21.674 29.0097L20.5185 29.6655ZM22.8608 28.3226L22.5172 27.7605L23.6728 27.1046L24.0163 27.6668L22.8608 28.3226ZM25.1718 26.9797L24.8283 26.4176L25.9838 25.7617L26.3273 26.3239L25.1718 26.9797Z" fill="white"/>
<path d="M40.8496 35.0377L40.1001 34.6005L40.4436 34.0383L41.1931 34.4756L40.8496 35.0377ZM38.9133 34.0071L37.7265 33.3825L38.0076 32.8203L39.1944 33.4449L38.9133 34.0071ZM36.571 32.7579L35.3843 32.1333L35.7278 31.5711L36.9146 32.1957L36.571 32.7579ZM34.2287 31.5087L33.042 30.884L33.323 30.3219L34.5098 30.9465L34.2287 31.5087ZM31.824 30.2594L30.6372 29.6348L30.9183 29.0727L32.1051 29.6973L31.824 30.2594ZM29.5129 29.0415L28.3262 28.4168L28.6697 27.8547L29.8565 28.4793L29.5129 29.0415ZM27.1706 27.7922L25.9839 27.1676L26.3274 26.6055L27.5142 27.2301L27.1706 27.7922Z" fill="white"/>
<path d="M28.6556 4.96029L28.3623 5.54688L28.9489 5.84017L29.2422 5.25359L28.6556 4.96029Z" fill="white"/>
<path d="M40.8493 11.7395L39.6625 11.1774L39.9436 10.6152L41.1304 11.1774L40.8493 11.7395ZM38.4758 10.5528L37.289 9.9906L37.5701 9.42845L38.7568 9.9906L38.4758 10.5528ZM36.1335 9.36599L34.9467 8.80384L35.2278 8.2417L36.4146 8.80384L36.1335 9.36599ZM33.76 8.17924L32.5732 7.61709L32.8543 7.05494L34.041 7.61709L33.76 8.17924ZM31.3552 7.02371L30.1685 6.46156L30.4495 5.89941L31.6363 6.46156L31.3552 7.02371Z" fill="white"/>
<path d="M42.3053 11.75L42.0127 12.3369L42.5996 12.6295L42.8922 12.0426L42.3053 11.75Z" fill="white"/>
<path d="M7.68275 19.9531H6.33984V31.5396H7.68275V19.9531Z" fill="white"/>
<path d="M43.8789 15.2061L43.9101 15.2373H43.8789V15.2061Z" fill="white"/>
<path d="M43.879 8.45996C40.0689 8.45996 36.9458 11.5518 36.9458 15.3931C36.9458 19.2032 40.0376 22.3263 43.879 22.3263C47.7203 22.3263 50.8121 19.2345 50.8121 15.3931C50.8434 11.5518 47.6891 8.45996 43.879 8.45996ZM46.5023 19.2032C45.5966 19.7654 44.4099 19.4843 43.8165 18.5474C43.348 17.7979 43.473 16.8297 44.0664 16.2051L43.879 15.8616H42.9108C42.6297 16.6111 41.9114 17.142 41.0995 17.142C40.0376 17.142 39.1944 16.2676 39.1944 15.237C39.1944 14.1751 40.0688 13.2695 41.0995 13.2695C42.0051 13.2695 42.7547 13.8941 42.9733 14.7061H43.5979L43.9414 14.0814C43.4105 13.5193 43.2856 12.6136 43.6604 11.8953C44.1288 10.9272 45.3156 10.6149 46.2837 11.0833C47.2519 11.6142 47.6266 12.7385 47.0957 13.7067C46.6585 14.5187 45.8153 14.8934 44.9408 14.7061L44.7534 15.0808L45.1282 15.7054C45.9402 15.5493 46.7522 15.8928 47.1894 16.5799C47.6891 17.4231 47.408 18.6411 46.5023 19.2032Z" fill="white"/>
<path d="M26.4835 25.3252H25.8276V49.2477H26.4835V25.3252Z" fill="white"/>
<path d="M45.815 29.0723C42.0049 29.0723 38.8818 32.1641 38.8818 36.0054C38.8818 39.8468 41.9737 42.9386 45.815 42.9386C49.6564 42.9386 52.7482 39.8156 52.7482 36.0054C52.7482 32.1953 49.6564 29.0723 45.815 29.0723ZM48.8444 38.9723H42.8169L43.379 36.8799L42.9106 37.036L42.567 36.0367L43.7226 35.6619L44.8156 31.6019H47.0954L46.2835 34.7562L47.0954 34.4751L47.439 35.4745L45.9712 36.0054L45.5964 37.442H49.0942L48.8444 38.9723Z" fill="white"/>
<path d="M6.93317 7.64844C3.12305 7.64844 0 10.7403 0 14.5816C0 18.3917 3.09182 21.5148 6.93317 21.5148C10.7745 21.5148 13.8663 18.423 13.8663 14.5816C13.8351 10.7403 10.7433 7.64844 6.93317 7.64844ZM10.025 17.2362C9.8376 17.5173 9.55653 17.7671 9.27545 17.892C8.99438 18.0794 8.61961 18.1731 8.21362 18.2668C8.05746 18.2668 7.96377 18.3293 7.87008 18.3293V19.4223H6.90194V18.3605H6.2461V19.4223H5.34041V18.3605H3.6852C3.62274 18.2043 3.62274 18.0794 3.6852 17.9233L4.59088 17.6422V11.4898L3.6852 11.2087C3.62274 11.0526 3.62274 10.9276 3.6852 10.7715H5.34041V9.67842H6.2461V10.7715H6.90194V9.67842H7.80762V10.8339C8.18239 10.8964 8.52592 10.9901 8.807 11.0838C9.08807 11.2399 9.33792 11.4273 9.5253 11.6459C9.71268 11.8958 9.80637 12.2081 9.80637 12.6453C9.80637 13.0825 9.65022 13.3948 9.43161 13.7072C9.15053 13.9882 8.807 14.1756 8.43223 14.2693V14.3318C8.71331 14.3318 8.96315 14.3942 9.15053 14.4879C9.40037 14.5816 9.58776 14.7378 9.71268 14.8627C9.86883 15.0188 9.99375 15.2062 10.0874 15.3936C10.1811 15.6434 10.2436 15.8621 10.2436 16.1119C10.2748 16.5804 10.1811 16.9551 10.025 17.2362Z" fill="white"/>
<path d="M73.7763 18.9923C69.6112 18.9923 66.4294 22.3476 66.4294 26.9755C66.4294 31.6035 69.6112 34.9587 73.7763 34.9587C76.1481 34.9587 78.9827 33.5704 81.1232 31.4299L86.4453 37.0992C83.09 40.7437 78.0572 42.9998 73.3714 42.9998C63.9998 42.9998 57 36.1736 57 27.0912C57 18.0667 64.0576 11.4141 73.6027 11.4141C78.2885 11.4141 83.2636 13.5545 86.4453 16.9097L81.1232 23.2153C79.272 20.6121 76.3795 18.9923 73.7763 18.9923Z" fill="white"/>
<path d="M113.75 30.5591C113.75 37.9638 108.543 42.8231 100.387 42.8231C92.3456 42.8231 87.0234 37.9638 87.0234 30.5591C87.0234 23.1543 92.3456 18.295 100.387 18.295C108.486 18.1793 113.75 23.0386 113.75 30.5591ZM95.9901 30.6747C95.9901 33.8565 97.6677 35.9969 100.329 35.9969C102.874 35.9969 104.667 33.8565 104.667 30.6747C104.667 27.493 102.99 25.3526 100.329 25.3526C97.7834 25.2948 95.9901 27.493 95.9901 30.6747Z" fill="white"/>
<path d="M126.247 18.5286V42.4782H117.338V18.4129H126.247V18.5286ZM125.611 11.8181C125.611 13.9585 124.107 15.5204 121.793 15.5204C119.479 15.5204 117.975 13.9006 117.975 11.8181C117.975 9.61979 119.479 8 121.793 8C124.107 8 125.611 9.56194 125.611 11.8181Z" fill="white"/>
<path d="M156.791 27.3191V42.5335H147.882V29.8645C147.882 27.4927 146.552 25.9886 144.411 25.9886C142.039 25.9886 140.535 27.9555 140.535 30.6744V42.5335H131.626V18.4682H140.535V22.1706C142.213 19.5095 144.758 18.1211 148.114 18.1211C153.262 18.1789 156.791 21.7078 156.791 27.3191Z" fill="white"/>
<path d="M182.532 42.5363L176.863 33.1647C176.4 33.1647 175.995 33.1647 175.475 33.1647H168.128V42.5363H162.921V11.5869H175.475C183.342 11.5869 187.912 15.405 187.912 22.1155C187.912 27.0905 185.598 30.5037 181.549 32.1234L188.433 42.4785H182.532V42.5363ZM175.475 28.5368C180.276 28.5368 182.995 26.5121 182.995 22.3469C182.995 18.2974 180.276 16.3306 175.475 16.3306H168.128V28.5368H175.475Z" fill="white"/>
<path d="M216.838 30.7331C216.838 37.7908 211.863 42.6501 204.632 42.6501C197.401 42.6501 192.368 37.7908 192.368 30.7331C192.368 23.6755 197.343 18.874 204.632 18.874C211.921 18.9319 216.838 23.6755 216.838 30.7331ZM197.401 30.8488C197.401 35.3611 200.293 38.4271 204.574 38.4271C208.739 38.4271 211.747 35.3611 211.747 30.8488C211.747 26.3366 208.855 23.2706 204.574 23.2706C200.409 23.2127 197.401 26.3366 197.401 30.8488Z" fill="white"/>
<path d="M243.566 19.1074V42.5364H238.533V37.9663C236.913 41.2637 234.021 42.6521 230.145 42.7678C224.765 42.7678 221.583 39.2969 221.583 33.7433V19.1653H226.616V32.3549C226.616 35.8837 228.641 38.0242 232.112 38.0242C236.161 37.9085 238.591 34.8424 238.591 30.6773V19.1074H243.624V19.1074H243.566Z" fill="white"/>
<path d="M264.332 41.0885C262.481 42.1298 260.514 42.7661 258.605 42.7661C255.077 42.7661 252.068 40.7414 252.068 35.9399V23.7337H248.771V19.9156H252.068V13.4365H257.101V19.9156H263.985V23.7337H257.101V34.9565C257.101 37.3283 257.969 38.1382 259.589 38.1382C260.63 38.1382 261.729 37.7911 263.118 37.1548L264.332 41.0885Z" fill="white"/>
<path d="M289.439 32.7606H271.679C272.489 36.4051 275.208 38.6033 278.91 38.6033C281.456 38.6033 283.77 37.6199 285.563 35.8844L288.224 38.719C285.91 41.2066 282.555 42.7106 278.505 42.7106C271.274 42.7106 266.473 37.9092 266.473 30.8515C266.473 23.7939 271.332 18.9346 278.332 18.9346C286.72 18.9346 290.075 24.3146 289.439 32.7606ZM284.984 29.0582C284.811 25.2401 282.323 22.984 278.447 22.984C274.745 22.984 272.084 25.298 271.563 29.0582H284.984Z" fill="white"/>
<path d="M301.356 22.869C299.389 22.869 297.885 23.5054 297.885 25.183C297.885 29.5217 310.322 27.1499 310.322 35.7116C310.322 40.5131 306.099 42.7113 301.298 42.7113C297.827 42.7113 294.24 41.5544 291.811 39.4139L293.604 35.7694C295.629 37.5628 298.926 38.6619 301.471 38.6619C303.612 38.6619 305.289 37.9677 305.289 36.1744C305.289 31.3729 292.91 34.0339 293.025 25.5879C293.025 20.7864 297.191 18.7617 301.703 18.7617C304.595 18.7617 307.777 19.6295 309.917 21.1335L308.066 24.8359C306.041 23.6789 303.38 22.869 301.356 22.869Z" fill="white"/>
</svg>
